<svg class="svg svg-logo" id="logo" xmlns="http://www.w3.org/2000/svg" viewBox="0 0 300 75"><g class="logo-wordmark" id="wordmark"><path d="M160,50.5v16.8h-11.9V42.8c0-4.8-3.9-8.8-8.8-8.8s-8.8,3.9-8.8,8.8v24.5h-11.9v-56l11.9-5.9v21.9c0.6-0.4,0.9-0.8,1.3-1.1 c1-0.9,2.1-1.6,3.4-2.2c0.9-0.5,1.9-0.8,2.9-1.1c1-0.3,2-0.5,3-0.5c0.7,0,1.3-0.2,2-0.2c1.4,0,2.8,0.1,4.2,0.3c1,0.2,2,0.4,3,0.8 c2.1,0.8,4,2,5.5,3.7c1.2,1.3,2.1,2.8,2.7,4.4c0.3,0.8,0.6,1.7,0.8,2.5c0.3,1,0.4,2,0.6,2.9c0.1,0.3,0,0.5,0.1,0.8 C160.1,41.9,160,46.2,160,50.5z M167.4,37.8V20.9h11.9v24.6c0,4.8,3.9,8.8,8.8,8.8s8.8-3.9,8.8-8.8V20.9h11.9v46.4h-9.9l-2-6.2 c-0.6,0.4-0.9,0.8-1.3,1.1c-1,0.9-2.1,1.6-3.4,2.2c-0.9,0.5-1.9,0.8-2.9,1.1c-1,0.3-2,0.5-3,0.5c-0.7,0-1.3,0.2-2,0.2 c-1.4,0-2.8-0.1-4.2-0.3c-1-0.2-2-0.4-3-0.8c-2.1-0.8-4-2-5.5-3.7c-1.2-1.3-2.1-2.8-2.7-4.4c-0.3-0.8-0.6-1.7-0.8-2.5 c-0.3-1-0.4-2-0.6-2.9c-0.1-0.3,0-0.5-0.1-0.8C167.3,46.5,167.4,42.1,167.4,37.8L167.4,37.8z M90.7,5.3H68.2v62h12.2V44.8h10.3 c10.9,0,19.7-8.8,19.7-19.7S101.5,5.3,90.7,5.3z M90.7,32.6H80.4V17.5h10.3c4.2,0,7.5,3.4,7.5,7.5S94.8,32.6,90.7,32.6z M234.8,67.3c-6.3,0-13.3-2.1-19.3-6.8l5.4-8.4c4.9,3.5,10,5.4,14.2,5.4c3.7,0,5.4-1.3,5.4-3.3V54c0-2.8-4.4-3.7-9.3-5.2 c-6.3-1.8-13.4-4.8-13.4-13.5v-0.2c0-9.1,7.4-14.2,16.4-14.2c5.7,0,11.9,1.9,16.7,5.2l-4.9,8.8c-4.4-2.6-8.9-4.2-12.1-4.2 c-3.1,0-4.7,1.3-4.7,3.1V34c0,2.5,4.3,3.7,9.1,5.4c6.3,2.1,13.6,5.1,13.6,13.3v0.2C252,62.8,244.5,67.3,234.8,67.3L234.8,67.3z M299.8,48.5h-31c1.2,5.7,5.2,8.7,10.9,8.7c4.2,0,7.3-1.3,10.8-4.6l7.2,6.4c-4.1,5.1-10.1,8.3-18.2,8.3c-13.4,0-23.2-9.4-23.2-23 v-0.2c0-12.7,9-23.1,22-23.1c14.9,0,21.7,11.5,21.7,24.1v0.2C300,46.6,299.9,47.3,299.8,48.5L299.8,48.5z M278.3,31.2 c-5.2,0-8.6,3.7-9.6,9.5h19C287,35,283.7,31.2,278.3,31.2z"></path></g><g class="logo-lightening" id="brandmark"><path d="M32.5,14.9c0,2.2-1.8,4-4,4h-6.4c-2.2,0-4-1.8-4-4s1.8-4,4-4h6.4C30.8,10.9,32.5,12.7,32.5,14.9z M30.1,25.9 c0,2.2-1.8,4-4,4h-3c-2.2,0-4-1.8-4-4s1.8-4,4-4h3C28.3,21.9,30.1,23.7,30.1,25.9z M23.2,37c0,2.2-1.8,4-4,4s-4-1.8-4-4s1.8-4,4-4 S23.2,34.8,23.2,37z M17.9,25.9c0,2.2-1.8,4-4,4s-4-1.8-4-4s1.8-4,4-4S17.9,23.7,17.9,25.9z M13.4,37c0,2.2-1.8,4-4,4H4 c-2.2,0-4-1.8-4-4s1.8-4,4-4h5.4C11.6,33,13.4,34.8,13.4,37z M35.3,3.8c0,2.2-1.8,4-4,4h-0.1c-2.2,0-4-1.8-4-4s1.8-4,4-4h0.1 C33.6-0.2,35.3,1.6,35.3,3.8z"></path><path d="M47.8,37c0,2.2-1.8,4-4,4s-4-1.8-4-4s1.8-4,4-4S47.8,34.8,47.8,37z"></path><path d="M21.1,70.2c0,2.2-1.8,4-4,4H17c-2.2,0-4-1.8-4-4s1.8-4,4-4h0.1C19.3,66.2,21.1,68,21.1,70.2z M38.5,48.1c0,2.2-1.8,4-4,4 h-12c-2.2,0-4-1.8-4-4s1.8-4,4-4h12C36.7,44.1,38.5,45.9,38.5,48.1z M24.7,37c0-2.2,1.8-4,4-4h5.4c2.2,0,4,1.8,4,4s-1.8,4-4,4 h-5.4C26.5,41,24.7,39.2,24.7,37z M30.2,59.1c0,2.2-1.8,4-4,4h-6.4c-2.2,0-4-1.8-4-4s1.8-4,4-4h6.4C28.4,55.1,30.2,56.9,30.2,59.1 z"></path></g></svg>